<svg width="250" height="250" viewBox="0 0 250 250" fill="none" xmlns="http://www.w3.org/2000/svg">
    <g id="dj-pad" clip-path="url(#clip0_1_2)">
        <g id="pad">
            <path id="Vector" d="M37.5 32.5H212.5C233.21 32.5 250 49.29 250 70V212.5C250 233.212 233.21 250 212.5 250H37.5C16.79 250 0 233.212 0 212.5V70C0 49.29 16.79 32.5 37.5 32.5Z" fill="#2C3E50"/>
            <path id="Vector_2" d="M37.5 0H212.5C233.21 0 250 16.79 250 37.5V202.5C250 223.212 233.21 240 212.5 240H37.5C16.79 240 0 223.212 0 202.5V37.5C0 16.79 16.79 0 37.5 0Z" fill="#3E5266"/>
            <path id="Vector_3" d="M121.25 37.5C168.887 37.5 207.5 76.115 207.5 123.75C207.5 171.387 168.887 210 121.25 210C73.615 210 35 171.387 35 123.75C35 76.115 73.615 37.5 121.25 37.5Z" fill="#2C3E50"/>
        </g>
        <g id="disc">
            <path id="Vector_4" d="M122.5 37.5C169.443 37.5 207.5 75.5575 207.5 122.5C207.5 169.443 169.443 207.5 122.5 207.5C75.555 207.5 37.5 169.443 37.5 122.5C37.5 75.555 75.555 37.5 122.5 37.5Z" fill="#BCC4C8"/>
            <path id="Vector_5" d="M122.5 44.39C165.64 44.39 200.607 79.36 200.607 122.498C200.607 165.638 165.64 200.61 122.5 200.61C79.3625 200.61 44.3925 165.64 44.3925 122.498C44.3925 79.3625 79.3625 44.39 122.5 44.39Z" fill="#34495E"/>
            <path id="Vector_6" d="M122.5 117.5C123.157 117.5 123.807 117.63 124.414 117.881C125.021 118.133 125.572 118.501 126.036 118.966C126.5 119.43 126.869 119.982 127.12 120.589C127.371 121.195 127.5 121.846 127.5 122.502C127.5 123.159 127.37 123.81 127.119 124.416C126.867 125.023 126.499 125.574 126.034 126.039C125.57 126.503 125.018 126.871 124.411 127.122C123.805 127.373 123.154 127.503 122.497 127.502C121.171 127.502 119.899 126.975 118.961 126.037C118.024 125.099 117.497 123.826 117.497 122.5C117.498 121.174 118.025 119.902 118.963 118.964C119.901 118.026 121.174 117.5 122.5 117.5Z" fill="#EBEDEE"/>
            <path id="Vector_7" d="M132.792 112.478L129.693 115.575C131.49 117.432 132.497 119.915 132.5 122.5C132.5 125.152 131.446 127.696 129.571 129.571C127.696 131.446 125.152 132.5 122.5 132.5C119.915 132.498 117.432 131.491 115.575 129.693L112.478 132.79L150.537 195.405C161.001 191.368 170.476 185.131 178.32 177.115C186.165 169.1 192.197 159.493 196.008 148.945L132.792 112.478ZM48.9675 96.1275L112.323 132.675L115.43 129.573C113.589 127.69 112.565 125.158 112.579 122.525C112.594 119.893 113.646 117.372 115.507 115.51C117.369 113.648 119.89 112.596 122.522 112.581C125.155 112.566 127.687 113.589 129.57 115.43L132.675 112.323L94.5325 49.5675C84.0411 53.6038 74.5416 59.8512 66.6793 67.8852C58.817 75.9191 52.7763 85.5514 48.9675 96.1275Z" fill="#495C6E"/>
            <path id="Vector_8" d="M122.5 90C104.55 90 90 104.55 90 122.5C90 140.45 104.55 155 122.5 155C140.45 155 155 140.45 155 122.5C155 104.55 140.45 90 122.5 90ZM122.5 132.5C119.848 132.5 117.304 131.446 115.429 129.571C113.554 127.696 112.5 125.152 112.5 122.5C112.5 119.848 113.554 117.304 115.429 115.429C117.304 113.554 119.848 112.5 122.5 112.5C125.152 112.5 127.696 113.554 129.571 115.429C131.446 117.304 132.5 119.848 132.5 122.5C132.5 125.152 131.446 127.696 129.571 129.571C127.696 131.446 125.152 132.5 122.5 132.5Z" fill="#5FCCFF"/>
        </g>
        <g id="button">
            <path id="Vector_9" d="M215 182.5C221.905 182.5 227.5 188.095 227.5 195C227.5 201.905 221.905 207.5 215 207.5C208.095 207.5 202.5 201.905 202.5 195C202.5 188.095 208.095 182.5 215 182.5Z" fill="white"/>
            <path id="Vector_10" d="M215 187.5C216.956 187.55 218.814 188.363 220.179 189.764C221.545 191.165 222.309 193.044 222.309 195C222.309 196.956 221.545 198.835 220.179 200.236C218.814 201.637 216.956 202.45 215 202.5C213.044 202.45 211.186 201.637 209.821 200.236C208.455 198.835 207.691 196.956 207.691 195C207.691 193.044 208.455 191.165 209.821 189.764C211.186 188.363 213.044 187.55 215 187.5Z" fill="#E45136"/>
        </g>
        <g id="stick">
            <path id="Vector_11" d="M189.975 129.01L213.638 38.415L206.362 36.5925L184.088 125.697C183.54 126.085 162.222 145.725 162.222 145.725C160.892 145.149 159.439 144.913 157.994 145.038C156.55 145.163 155.159 145.645 153.946 146.44C152.734 147.236 151.739 148.321 151.05 149.597C150.361 150.873 150 152.3 150 153.75C150 158.585 153.915 162.5 158.75 162.5C163.585 162.5 167.5 158.585 167.5 153.75C167.489 152.92 167.357 152.095 167.11 151.302L188.857 131.442V131.44C189.502 130.815 189.907 129.96 189.975 129.01Z" fill="#2C3E50"/>
            <path id="Vector_12" d="M212.5 25C209.164 24.9999 205.924 26.1116 203.291 28.1595C200.657 30.2074 198.782 33.0746 197.961 36.3077C197.14 39.5408 197.42 42.9553 198.757 46.0115C200.094 49.0676 202.411 51.5909 205.343 53.1825L186.588 128.193C186.04 128.583 164.722 148.225 164.722 148.225C163.392 147.649 161.939 147.413 160.494 147.538C159.049 147.663 157.659 148.145 156.446 148.94C155.234 149.736 154.239 150.821 153.55 152.097C152.861 153.373 152.5 154.8 152.5 156.25C152.5 161.085 156.415 165 161.25 165C166.085 165 170 161.085 170 156.25C169.989 155.42 169.857 154.595 169.61 153.803L191.357 133.94V133.938C192.002 133.315 192.407 132.46 192.475 131.507L212.455 54.9975L212.5 55C216.478 55 220.294 53.4196 223.107 50.6066C225.92 47.7936 227.5 43.9782 227.5 40C227.5 36.0218 225.92 32.2064 223.107 29.3934C220.294 26.5804 216.478 25 212.5 25ZM161.25 160C160.757 160 160.27 159.903 159.815 159.714C159.359 159.525 158.946 159.249 158.598 158.9C158.25 158.552 157.973 158.138 157.785 157.683C157.597 157.228 157.5 156.74 157.5 156.247C157.5 155.755 157.597 155.267 157.786 154.812C157.975 154.357 158.251 153.944 158.6 153.595C158.948 153.247 159.362 152.971 159.817 152.783C160.272 152.594 160.76 152.497 161.252 152.497C162.247 152.498 163.201 152.893 163.905 153.597C164.608 154.301 165.003 155.255 165.002 156.25C165.002 157.245 164.607 158.199 163.903 158.902C163.199 159.605 162.245 160 161.25 160Z" fill="white"/>
            <path id="Vector_13" d="M212.5 32.5C214.489 32.5 216.397 33.2902 217.803 34.6967C219.21 36.1032 220 38.0109 220 40C220 41.9891 219.21 43.8968 217.803 45.3033C216.397 46.7098 214.489 47.5 212.5 47.5C210.511 47.5 208.603 46.7098 207.197 45.3033C205.79 43.8968 205 41.9891 205 40C205 38.0109 205.79 36.1032 207.197 34.6967C208.603 33.2902 210.511 32.5 212.5 32.5Z" fill="#95A5A6"/>
        </g>
    </g>
    <defs>
        <clipPath id="clip0_1_2">
            <rect width="250" height="250" fill="white"/>
        </clipPath>
    </defs>
</svg>
